<?xml version="1.0" standalone="no"?>
<!DOCTYPE svg PUBLIC "-//W3C//DTD SVG 20010904//EN"
 "http://www.w3.org/TR/2001/REC-SVG-20010904/DTD/svg10.dtd">
<svg version="1.0" xmlns="http://www.w3.org/2000/svg"
 width="99.000000pt" height="129.000000pt" viewBox="0 0 99.000000 129.000000"
 preserveAspectRatio="xMidYMid meet">
<metadata>
Created by potrace 1.13, written by Peter Selinger 2001-2015
</metadata>
<g transform="translate(0.000000,129.000000) scale(0.100000,-0.100000)"
fill="#000000" stroke="none">
<path d="M564 955 c-10 -8 -29 -15 -42 -15 -30 0 -72 -43 -72 -73 0 -12 -5
-28 -10 -33 -6 -6 -14 -25 -19 -42 -8 -25 -6 -36 10 -56 10 -13 19 -35 19 -49
0 -29 42 -67 73 -67 11 0 28 -6 36 -14 51 -44 103 -17 149 77 18 36 46 77 63
91 25 22 28 29 19 46 -6 11 -15 20 -20 20 -5 0 -7 6 -4 14 14 36 -54 101 -85
82 -5 -3 -16 3 -26 14 -21 24 -63 26 -91 5z"/>
<path d="M120 415 l0 -75 30 0 c24 0 31 -5 36 -27 4 -16 24 -91 44 -168 l37
-140 195 -3 196 -2 42 170 42 170 29 0 29 0 0 75 0 75 -340 0 -340 0 0 -75z"/>
</g>
</svg>
